Tool - Ænima - "CD remaster" by MC Lurken



!!!!!THIS IS NOT AN OFFICIAL REMASTER...THIS IS AN ENHANCEMENT OF THE ORIGINAL CD AND A FAN RELEASE!!!!!
!!!!!THIS IS NOT AN OFFICIAL REMASTER...THIS IS AN ENHANCEMENT OF THE ORIGINAL CD AND A FAN RELEASE!!!!!
!!!!!THIS IS NOT AN OFFICIAL REMASTER...THIS IS AN ENHANCEMENT OF THE ORIGINAL CD AND A FAN RELEASE!!!!!



1 - Stinkfist
2 - Eulogy
3 - H.
4 - Useful Idiot
5 - Forty Six & 2
6 - Message To Harry Manback
7 - Hooker With A Penis
8 - Intermission
9 - Jimmy
10 - Die Eier Von Satan
11 - Pushit
12 - Cesaro Summability
13 - Ænima
14 - (-) Ions
15 - Third Eye



foobar2000 1.1.13 / Dynamic Range Meter 1.1.1
log date: 2012-07-07 17:28:21

--------------------------------------------------------------------------------
Analyzed: ? / ?
--------------------------------------------------------------------------------

DR         Peak         RMS     Duration Track
--------------------------------------------------------------------------------
DR8       -0.07 dB    -9.95 dB      5:11 ?-01 - Stinkfist
DR8       -0.07 dB   -10.83 dB      8:29 ?-02 - Eulogy
DR8       -0.07 dB   -11.10 dB      6:07 ?-03 - H.
DR14      -2.96 dB   -26.32 dB      0:39 ?-04 - Useful Idiot
DR8       -0.07 dB    -9.89 dB      6:04 ?-05 - Forty Six & 2
DR18     -10.88 dB   -31.48 dB      1:53 ?-06 - Message To Harry Manback
DR7       -0.07 dB    -9.07 dB      4:34 ?-07 - Hooker With A Penis
DR12     -11.69 dB   -26.91 dB      0:56 ?-08 - Intermission
DR7       -0.07 dB    -9.72 dB      5:24 ?-09 - Jimmy
DR9       -2.01 dB   -12.76 dB      2:17 ?-10 - Die Eier Von Satan
DR7       -0.07 dB   -10.46 dB      9:56 ?-11 - Pushit
DR12      -0.55 dB   -17.01 dB      1:26 ?-12 - Cesaro Summability
DR8       -0.07 dB    -9.63 dB      6:40 ?-13 - Ænima
DR13      -0.61 dB   -18.85 dB      4:00 ?-14 - (-) Ions
DR8       -0.07 dB   -10.77 dB     13:47 ?-15 - Third Eye
--------------------------------------------------------------------------------

Number of tracks:  15
Official DR value: DR10

Samplerate:        96000 Hz
Channels:          2
Bits per sample:   24
Bitrate:           4608 kbps
Codec:             PCM



For maximum quality decode your flac files to a write speed limited drive such as a flash drive, Experiment with this yourself to understand what I'm talking about. Any questions feel free to ask.


Please seed as much as you can. Your help will be appreciated.




enjoy :)
